<svg width="25" height="25" viewBox="0 0 25 25" fill="none" xmlns="http://www.w3.org/2000/svg">
<g id="Frame 1198">
<g id="Vector">
<path d="M21.4098 16.1481C20.8397 17.7727 19.8369 19.2107 18.5098 20.3071C17.1827 21.4035 15.5815 22.1168 13.8789 22.3698C13.7624 22.5618 13.5986 22.7205 13.4032 22.8309C13.2077 22.9412 12.9872 22.9995 12.7628 23H11.7128C11.3647 23 11.0309 22.8617 10.7847 22.6155C10.5386 22.3693 10.4003 22.0354 10.4003 21.6872C10.4003 21.339 10.5386 21.0051 10.7847 20.7589C11.0309 20.5127 11.3647 20.3744 11.7128 20.3744H12.7628C12.9445 20.3747 13.1241 20.4129 13.2902 20.4867C13.4563 20.5605 13.6051 20.6682 13.7272 20.8029C15.041 20.5948 16.2809 20.0575 17.3313 19.2411C18.3817 18.4246 19.2085 17.3556 19.7346 16.1334C19.322 16.0467 18.9518 15.8207 18.6861 15.4933C18.4204 15.1659 18.2753 14.7571 18.2751 14.3354V12.76C18.2751 12.2725 18.4687 11.8051 18.8133 11.4604C19.1579 11.1157 19.6252 10.9221 20.1126 10.9221H20.3483C20.2178 8.9287 19.3342 7.05963 17.8767 5.69402C16.4191 4.32841 14.4968 3.56852 12.4997 3.56852C10.5027 3.56852 8.58036 4.32841 7.12282 5.69402C5.66527 7.05963 4.78164 8.9287 4.65118 10.9221H4.88743C5.37475 10.9221 5.84211 11.1157 6.1867 11.4604C6.53129 11.8051 6.72488 12.2725 6.72488 12.76V14.3354C6.72488 14.8228 6.53129 15.2903 6.1867 15.635C5.84211 15.9797 5.37475 16.1733 4.88743 16.1733H3.83745C3.35013 16.1733 2.88277 15.9797 2.53818 15.635C2.19359 15.2903 2 14.8228 2 14.3354V12.76C2.00054 12.4096 2.10138 12.0666 2.29061 11.7717C2.47984 11.4768 2.74955 11.2423 3.06782 11.0959C3.15709 8.65337 4.18988 6.34069 5.94895 4.64429C7.70802 2.94789 10.0563 2 12.4997 2C14.9432 2 17.2915 2.94789 19.0505 4.64429C20.8096 6.34069 21.8424 8.65337 21.9317 11.0959C22.25 11.2422 22.5198 11.4767 22.7092 11.7716C22.8985 12.0665 22.9994 12.4095 23 12.76V14.3354C22.9993 14.7789 22.8377 15.2071 22.5452 15.5405C22.2528 15.8739 21.8494 16.0898 21.4098 16.1481ZM3.57549 13.2851V13.8103C3.57549 14.0192 3.65845 14.2195 3.80613 14.3672C3.95381 14.515 4.15411 14.598 4.36297 14.598C4.57182 14.598 4.77212 14.515 4.9198 14.3672C5.06748 14.2195 5.15045 14.0192 5.15045 13.8103V13.2851C5.15045 13.0762 5.06748 12.8759 4.9198 12.7281C4.77212 12.5804 4.57182 12.4974 4.36297 12.4974C4.15411 12.4974 3.95381 12.5804 3.80613 12.7281C3.65845 12.8759 3.57549 13.0762 3.57549 13.2851ZM21.425 13.2851C21.425 13.0762 21.3421 12.8759 21.1944 12.7281C21.0467 12.5804 20.8464 12.4974 20.6376 12.4974C20.4287 12.4974 20.2284 12.5804 20.0807 12.7281C19.933 12.8759 19.8501 13.0762 19.8501 13.2851V13.8103C19.8501 14.0192 19.933 14.2195 20.0807 14.3672C20.2284 14.515 20.4287 14.598 20.6376 14.598C20.8464 14.598 21.0467 14.515 21.1944 14.3672C21.3421 14.2195 21.425 14.0192 21.425 13.8103V13.2851Z" fill="#FF8524"/>
<path d="M12.5003 17.2178C13.0573 17.2159 13.6077 17.0966 14.1156 16.8676C14.6234 16.6386 15.0773 16.305 15.4475 15.8887C15.5166 15.8135 15.57 15.7252 15.6045 15.629C15.639 15.5329 15.654 15.4308 15.6485 15.3288C15.6431 15.2267 15.6174 15.1268 15.5729 15.0349C15.5283 14.9429 15.4659 14.8608 15.3893 14.7933C15.2333 14.6554 15.0295 14.5841 14.8216 14.5949C14.6137 14.6056 14.4183 14.6973 14.2773 14.8505C14.0572 15.1063 13.7845 15.3115 13.4778 15.4522C13.1711 15.5928 12.8377 15.6657 12.5003 15.6657C12.1629 15.6657 11.8294 15.5928 11.5228 15.4522C11.2161 15.3115 10.9433 15.1063 10.7232 14.8505C10.5822 14.6973 10.3868 14.6056 10.1789 14.5949C9.97102 14.5841 9.76722 14.6554 9.61126 14.7933C9.53454 14.8608 9.47206 14.9429 9.42749 15.0348C9.38293 15.1268 9.35718 15.2267 9.35175 15.3287C9.34632 15.4308 9.36133 15.5329 9.39588 15.629C9.43044 15.7252 9.48385 15.8135 9.55299 15.8887C9.92317 16.3051 10.377 16.6388 10.8849 16.8678C11.3927 17.0968 11.9432 17.2161 12.5003 17.2178Z" fill="#FF8524"/>
<path d="M21.4098 16.1481C20.8397 17.7727 19.8369 19.2107 18.5098 20.3071C17.1827 21.4035 15.5815 22.1168 13.8789 22.3698C13.7624 22.5618 13.5986 22.7205 13.4032 22.8309C13.2077 22.9412 12.9872 22.9995 12.7628 23H11.7128C11.3647 23 11.0309 22.8617 10.7847 22.6155C10.5386 22.3693 10.4003 22.0354 10.4003 21.6872C10.4003 21.339 10.5386 21.0051 10.7847 20.7589C11.0309 20.5127 11.3647 20.3744 11.7128 20.3744H12.7628C12.9445 20.3747 13.1241 20.4129 13.2902 20.4867C13.4563 20.5605 13.6051 20.6682 13.7272 20.8029C15.041 20.5948 16.2809 20.0575 17.3313 19.2411C18.3817 18.4246 19.2085 17.3556 19.7346 16.1334C19.322 16.0467 18.9518 15.8207 18.6861 15.4933C18.4204 15.1659 18.2753 14.7571 18.2751 14.3354V12.76C18.2751 12.2725 18.4687 11.8051 18.8133 11.4604C19.1579 11.1157 19.6252 10.9221 20.1126 10.9221H20.3483C20.2178 8.9287 19.3342 7.05963 17.8767 5.69402C16.4191 4.32841 14.4968 3.56852 12.4997 3.56852C10.5027 3.56852 8.58036 4.32841 7.12282 5.69402C5.66527 7.05963 4.78164 8.9287 4.65118 10.9221H4.88743C5.37475 10.9221 5.84211 11.1157 6.1867 11.4604C6.53129 11.8051 6.72488 12.2725 6.72488 12.76V14.3354C6.72488 14.8228 6.53129 15.2903 6.1867 15.635C5.84211 15.9797 5.37475 16.1733 4.88743 16.1733H3.83745C3.35013 16.1733 2.88277 15.9797 2.53818 15.635C2.19359 15.2903 2 14.8228 2 14.3354V12.76C2.00054 12.4096 2.10138 12.0666 2.29061 11.7717C2.47984 11.4768 2.74955 11.2423 3.06782 11.0959C3.15709 8.65337 4.18988 6.34069 5.94895 4.64429C7.70802 2.94789 10.0563 2 12.4997 2C14.9432 2 17.2915 2.94789 19.0505 4.64429C20.8096 6.34069 21.8424 8.65337 21.9317 11.0959C22.25 11.2422 22.5198 11.4767 22.7092 11.7716C22.8985 12.0665 22.9994 12.4095 23 12.76V14.3354C22.9993 14.7789 22.8377 15.2071 22.5452 15.5405C22.2528 15.8739 21.8494 16.0898 21.4098 16.1481ZM3.57549 13.2851V13.8103C3.57549 14.0192 3.65845 14.2195 3.80613 14.3672C3.95381 14.515 4.15411 14.598 4.36297 14.598C4.57182 14.598 4.77212 14.515 4.9198 14.3672C5.06748 14.2195 5.15045 14.0192 5.15045 13.8103V13.2851C5.15045 13.0762 5.06748 12.8759 4.9198 12.7281C4.77212 12.5804 4.57182 12.4974 4.36297 12.4974C4.15411 12.4974 3.95381 12.5804 3.80613 12.7281C3.65845 12.8759 3.57549 13.0762 3.57549 13.2851ZM21.425 13.2851C21.425 13.0762 21.3421 12.8759 21.1944 12.7281C21.0467 12.5804 20.8464 12.4974 20.6376 12.4974C20.4287 12.4974 20.2284 12.5804 20.0807 12.7281C19.933 12.8759 19.8501 13.0762 19.8501 13.2851V13.8103C19.8501 14.0192 19.933 14.2195 20.0807 14.3672C20.2284 14.515 20.4287 14.598 20.6376 14.598C20.8464 14.598 21.0467 14.515 21.1944 14.3672C21.3421 14.2195 21.425 14.0192 21.425 13.8103V13.2851Z" stroke="#FF8524" stroke-width="0.5"/>
<path d="M12.5003 17.2178C13.0573 17.2159 13.6077 17.0966 14.1156 16.8676C14.6234 16.6386 15.0773 16.305 15.4475 15.8887C15.5166 15.8135 15.57 15.7252 15.6045 15.629C15.639 15.5329 15.654 15.4308 15.6485 15.3288C15.6431 15.2267 15.6174 15.1268 15.5729 15.0349C15.5283 14.9429 15.4659 14.8608 15.3893 14.7933C15.2333 14.6554 15.0295 14.5841 14.8216 14.5949C14.6137 14.6056 14.4183 14.6973 14.2773 14.8505C14.0572 15.1063 13.7845 15.3115 13.4778 15.4522C13.1711 15.5928 12.8377 15.6657 12.5003 15.6657C12.1629 15.6657 11.8294 15.5928 11.5228 15.4522C11.2161 15.3115 10.9433 15.1063 10.7232 14.8505C10.5822 14.6973 10.3868 14.6056 10.1789 14.5949C9.97102 14.5841 9.76722 14.6554 9.61126 14.7933C9.53454 14.8608 9.47206 14.9429 9.42749 15.0348C9.38293 15.1268 9.35718 15.2267 9.35175 15.3287C9.34632 15.4308 9.36133 15.5329 9.39588 15.629C9.43044 15.7252 9.48385 15.8135 9.55299 15.8887C9.92317 16.3051 10.377 16.6388 10.8849 16.8678C11.3927 17.0968 11.9432 17.2161 12.5003 17.2178Z" stroke="#FF8524" stroke-width="0.5"/>
</g>
</g>
</svg>
