<svg width="28" height="28" viewBox="0 0 28 28" fill="none" xmlns="http://www.w3.org/2000/svg">
<g id="Frame" clip-path="url(#clip0_1695_259)">
<path id="Vector" d="M19.1406 9.76992H8.85939C8.37814 9.76992 7.98439 9.37617 7.98439 8.89492C7.98439 8.41367 8.37814 8.01992 8.85939 8.01992H19.1406C19.6219 8.01992 20.0156 8.41367 20.0156 8.89492C20.0156 9.37617 19.6219 9.76992 19.1406 9.76992ZM14 10.9512C13.7539 10.9512 13.5242 11.0715 13.382 11.2711L8.11564 18.7961C7.95431 19.0258 7.9379 19.3266 8.06368 19.5754C8.1922 19.8242 8.44923 19.9801 8.73087 19.9801H19.2664C19.5481 19.9801 19.8024 19.8242 19.9336 19.5754C20.0621 19.3266 20.043 19.0258 19.8817 18.7961L14.6152 11.2738C14.5466 11.1742 14.4546 11.0927 14.3475 11.0365C14.2403 10.9803 14.121 10.951 14 10.9512Z" fill="white"/>
</g>
<defs>
<clipPath id="clip0_1695_259">
<rect width="28" height="28" fill="white"/>
</clipPath>
</defs>
</svg>
