<svg width="25" height="25" viewBox="0 0 25 25" fill="none" xmlns="http://www.w3.org/2000/svg">
<g id="yly_&#230;&#136;&#145;&#231;&#154;&#132;&#232;&#174;&#162;&#229;&#141;&#149; 1" clip-path="url(#clip0_1767_750)">
<path id="Vector" d="M21.4575 19.4482C21.4575 21.6431 19.6802 23.4204 17.4854 23.4204H7.55371C5.35889 23.4204 3.58154 21.6431 3.58154 19.4482V5.54443C3.58154 3.34961 5.35889 1.57227 7.55371 1.57227H15.4687C15.4736 1.57227 15.4761 1.57471 15.4785 1.57471C15.4834 1.57471 15.4907 1.57227 15.4956 1.57227V1.57715C15.752 1.57715 16.0107 1.6626 16.2061 1.86035L21.167 6.82129C21.3623 7.0166 21.4502 7.27539 21.4502 7.53174H21.4551C21.4551 7.53662 21.4526 7.54395 21.4526 7.54883C21.4526 7.55371 21.4551 7.55615 21.4551 7.56104V19.4482H21.4575ZM7.55371 3.55713C6.45752 3.55713 5.56641 4.4458 5.56641 5.54443V19.4482C5.56641 20.5444 6.45508 21.4355 7.55371 21.4355H17.4854C18.5815 21.4355 19.4727 20.5469 19.4727 19.4482V9.5166H15.498C14.4019 9.5166 13.5107 8.62793 13.5107 7.5293V3.55713H7.55371ZM15.498 3.98193V7.5293H19.0454L15.498 3.98193ZM17.4854 17.4609C17.4854 18.0103 17.041 18.4546 16.4917 18.4546H8.54736C7.99805 18.4546 7.55371 18.0103 7.55371 17.4609C7.55371 16.9116 7.99805 16.4673 8.54736 16.4673H16.4917C17.041 16.4673 17.4854 16.9141 17.4854 17.4609ZM11.5259 14.4824H8.54736C7.99805 14.4824 7.55371 14.0381 7.55371 13.4888C7.55371 12.9395 7.99805 12.4951 8.54736 12.4951H11.5259C12.0752 12.4951 12.5195 12.9395 12.5195 13.4888C12.5195 14.0381 12.0752 14.4824 11.5259 14.4824Z" fill="#00A291"/>
</g>
<defs>
<clipPath id="clip0_1767_750">
<rect width="25" height="25" fill="white"/>
</clipPath>
</defs>
</svg>
