<svg width="40" height="40" viewBox="0 0 40 40" fill="none" xmlns="http://www.w3.org/2000/svg">
<g id="Group 940">
<circle id="Ellipse 22" cx="20" cy="20" r="19.75" stroke="#888888" stroke-width="0.5"/>
<g id="&#230;&#137;&#139;&#230;&#156;&#186; 1">
<path id="Vector" d="M25.0417 10.8333C26.4339 10.8333 27.5625 11.962 27.5625 13.3542V26.6458C27.5625 28.038 26.4339 29.1667 25.0417 29.1667H14.9583C13.5661 29.1667 12.4375 28.038 12.4375 26.6458V13.3542C12.4375 11.962 13.5661 10.8333 14.9583 10.8333H25.0417ZM21.8333 25.7292H18.1667C17.9843 25.7292 17.8095 25.8016 17.6805 25.9305C17.5516 26.0595 17.4792 26.2343 17.4792 26.4167C17.4792 26.599 17.5516 26.7739 17.6805 26.9028C17.8095 27.0317 17.9843 27.1042 18.1667 27.1042H21.8333C22.0157 27.1042 22.1905 27.0317 22.3195 26.9028C22.4484 26.7739 22.5208 26.599 22.5208 26.4167C22.5208 26.2343 22.4484 26.0595 22.3195 25.9305C22.1905 25.8016 22.0157 25.7292 21.8333 25.7292ZM25.0417 12.2083H14.9583C14.8079 12.2083 14.6589 12.238 14.5198 12.2955C14.3808 12.3531 14.2545 12.4375 14.1481 12.5439C14.0417 12.6503 13.9573 12.7767 13.8997 12.9157C13.8421 13.0547 13.8125 13.2037 13.8125 13.3542V23.6667H26.1875V13.3542C26.1875 13.2037 26.1579 13.0547 26.1003 12.9157C26.0427 12.7767 25.9583 12.6503 25.8519 12.5439C25.7455 12.4375 25.6192 12.3531 25.4802 12.2955C25.3411 12.238 25.1921 12.2083 25.0417 12.2083Z" fill="black"/>
</g>
</g>
</svg>
