<svg width="40" height="40" viewBox="0 0 40 40" fill="none" xmlns="http://www.w3.org/2000/svg">
<g id="Group 941">
<circle id="Ellipse 22" cx="20" cy="20" r="19.75" stroke="#888888" stroke-width="0.5"/>
<g id="&#229;&#190;&#174;&#228;&#191;&#161; 1">
<path id="Vector" d="M23.5389 16.841C23.769 16.841 23.996 16.8577 24.2207 16.8819C23.6084 14.0813 20.5591 12 17.0789 12C13.1877 12 10 14.605 10 17.9126C10 19.8215 11.0607 21.3894 12.8326 22.6054L12.1247 24.6973L14.5991 23.4783C15.4851 23.6501 16.1951 23.8274 17.0789 23.8274C17.3009 23.8274 17.5207 23.8166 17.7395 23.7994C17.6011 23.335 17.5207 22.8479 17.5207 22.3431C17.5208 19.3059 20.1764 16.841 23.5389 16.841ZM19.7335 14.9558C20.2665 14.9558 20.6194 15.3006 20.6194 15.8238C20.6194 16.3448 20.2665 16.6939 19.7335 16.6939C19.2025 16.6939 18.6705 16.3448 18.6705 15.8238C18.6705 15.3006 19.2025 14.9558 19.7335 14.9558ZM14.7793 16.6939C14.2484 16.6939 13.7131 16.3447 13.7131 15.8237C13.7131 15.3006 14.2484 14.9558 14.7793 14.9558C15.3097 14.9558 15.6631 15.3006 15.6631 15.8237C15.6631 16.3448 15.3097 16.6939 14.7793 16.6939ZM30 22.2595C30 19.4799 27.1679 17.2144 23.9873 17.2144C20.6194 17.2144 17.967 19.4799 17.967 22.2595C17.967 25.0432 20.6194 27.3039 23.9873 27.3039C24.6919 27.3039 25.4031 27.1304 26.1109 26.9559L28.0528 28L27.5202 26.263C28.9415 25.2156 30 23.8274 30 22.2595ZM22.0352 21.3894C21.6829 21.3894 21.3273 21.0451 21.3273 20.6938C21.3273 20.3474 21.6829 19.9988 22.0352 19.9988C22.5704 19.9988 22.9211 20.3474 22.9211 20.6938C22.9211 21.0451 22.5704 21.3894 22.0352 21.3894ZM25.9285 21.3894C25.579 21.3894 25.2256 21.0451 25.2256 20.6938C25.2256 20.3474 25.579 19.9988 25.9285 19.9988C26.4595 19.9988 26.8145 20.3474 26.8145 20.6938C26.8145 21.0451 26.4595 21.3894 25.9285 21.3894Z" stroke="black"/>
</g>
</g>
</svg>
