<svg width="15" height="15" viewBox="0 0 15 15" fill="none" xmlns="http://www.w3.org/2000/svg">
<g id="&#229;&#156;&#176;&#229;&#140;&#186; 1" clip-path="url(#clip0_1726_1836)">
<path id="Vector" d="M7.58594 2.16931C7.29794 2.16931 7.01577 2.19348 6.74027 2.23798C6.8611 2.28348 7.01194 2.30798 7.2176 2.29814C7.92527 2.26448 8.36377 2.39931 7.85777 2.60181C7.35177 2.80431 7.44594 3.01931 7.6821 3.03614C7.91827 3.05298 8.46877 2.80098 8.65144 3.02264C8.83994 3.25148 8.43994 3.62681 8.67844 4.03231C9.03327 4.63581 7.8196 4.77398 7.51294 5.22648C7.2171 5.66298 7.05027 6.13048 7.3876 6.75714C7.72494 7.38381 7.80427 7.00531 8.39744 7.07398C9.56677 7.20931 9.21677 8.12481 10.6574 8.41148C11.2086 8.52115 10.8298 9.71848 9.8626 10.2955C8.93044 10.8515 9.22477 11.4893 7.9001 11.9146C7.58177 12.0168 7.3396 11.9581 7.58594 11.604C8.06377 10.9171 8.02227 10.1516 7.58594 9.80898C7.1496 9.46631 6.66044 9.39164 6.77844 8.86398C6.89644 8.33631 7.3531 8.15165 7.3856 7.67731C7.41694 7.21981 6.6911 5.66264 5.78394 5.97098C5.26577 6.14714 4.2636 5.48798 4.3166 4.62481C4.3781 3.62198 5.14627 3.46831 4.97377 2.87181C4.97327 2.87014 4.97394 2.86798 4.97377 2.86614C3.39794 3.77215 2.33594 5.47131 2.33594 7.41948C2.33594 10.319 4.68644 12.6695 7.58594 12.6695C10.4854 12.6695 12.8359 10.319 12.8359 7.41948C12.8359 4.51998 10.4854 2.16931 7.58594 2.16931Z" fill="url(#paint0_linear_1726_1836)"/>
</g>
<defs>
<linearGradient id="paint0_linear_1726_1836" x1="2.33594" y1="7.41939" x2="12.8359" y2="7.41939" gradientUnits="userSpaceOnUse">
<stop stop-color="#2254F4"/>
<stop offset="1" stop-color="#9438FC"/>
</linearGradient>
<clipPath id="clip0_1726_1836">
<rect width="15" height="15" fill="white"/>
</clipPath>
</defs>
</svg>
