<svg width="20" height="20" viewBox="0 0 20 20" fill="none" xmlns="http://www.w3.org/2000/svg">
<g id="&#233;&#128;&#128;&#229;&#135;&#186;" clip-path="url(#clip0_1726_1896)">
<path id="Vector" d="M13.5557 9.22222V6.23633C13.5557 5.82644 13.5557 5.47333 13.5323 5.18167C13.5067 4.87444 13.4514 4.568 13.3013 4.274C13.0776 3.83497 12.7207 3.47803 12.2816 3.25433C11.9876 3.10422 11.6812 3.049 11.374 3.02411C11.0823 3 10.7284 3 10.3193 3H8.23637C7.82648 3 7.47258 3 7.18169 3.02333C6.87447 3.049 6.56802 3.10422 6.27402 3.25433C5.83498 3.47803 5.47804 3.83497 5.25434 4.274C5.10422 4.568 5.049 4.87444 5.02411 5.18167C5 5.47333 5 5.82722 5 6.23633V13.7637C5 14.1736 5 14.5274 5.02333 14.8183C5.049 15.1256 5.10422 15.432 5.25434 15.726C5.47804 16.165 5.83498 16.522 6.27402 16.7457C6.56802 16.8958 6.87447 16.951 7.18169 16.9759C7.47336 17 7.82726 17 8.23715 17H10.3193C10.7292 17 11.0823 17 11.374 16.9767C11.6812 16.951 11.9876 16.8958 12.2816 16.7457C12.7207 16.522 13.0776 16.165 13.3013 15.726C13.4514 15.432 13.5067 15.1256 13.5315 14.8183C13.5557 14.5267 13.5557 14.1728 13.5557 13.7637V10.7778H8.88894C8.68265 10.7778 8.48482 10.6958 8.33896 10.55C8.19309 10.4041 8.11115 10.2063 8.11115 10C8.11115 9.79372 8.19309 9.59589 8.33896 9.45003C8.48482 9.30417 8.68265 9.22222 8.88894 9.22222H13.5557ZM15.3391 11.7834C15.2648 11.8552 15.2056 11.941 15.1648 12.0359C15.1241 12.1308 15.1026 12.2329 15.1017 12.3361C15.1008 12.4394 15.1205 12.5418 15.1596 12.6374C15.1987 12.733 15.2565 12.8198 15.3295 12.8929C15.4025 12.9659 15.4894 13.0236 15.5849 13.0627C15.6805 13.1019 15.7829 13.1215 15.8862 13.1206C15.9895 13.1197 16.0916 13.0983 16.1864 13.0575C16.2813 13.0168 16.3672 12.9575 16.4389 12.8832L18.7723 10.5499C18.9181 10.404 19 10.2062 19 10C19 9.79376 18.9181 9.59597 18.7723 9.45011L16.4389 7.11678C16.2922 6.9751 16.0958 6.8967 15.8918 6.89848C15.6879 6.90025 15.4928 6.98205 15.3486 7.12625C15.2044 7.27046 15.1226 7.46554 15.1208 7.66947C15.119 7.8734 15.1974 8.06986 15.3391 8.21656L16.3448 9.22222H13.5557V10.7778H16.3448L15.3391 11.7834Z" fill="#333333"/>
</g>
<defs>
<clipPath id="clip0_1726_1896">
<rect width="20" height="20" fill="white"/>
</clipPath>
</defs>
</svg>
