<svg width="83" height="42" viewBox="0 0 83 42" fill="none" xmlns="http://www.w3.org/2000/svg">
<g id="Group 99">
<path id="Rectangle 56" d="M17.666 0.5H65.334C67.1477 0.500024 68.7706 1.58698 69.4727 3.23438L69.6006 3.57031L80.3193 35.5703C81.2957 38.4854 79.126 41.5 76.0518 41.5H6.94824C3.97018 41.5 1.84136 38.6716 2.59863 35.8447L2.68066 35.5703L13.3994 3.57031C13.9755 1.85102 15.521 0.657358 17.3057 0.514648L17.666 0.5Z" fill="url(#paint0_linear_1_1407)" stroke="white"/>
<g id="&#229;&#133;&#168;&#232;&#166;&#134;&#231;&#155;&#150;&#230;&#168;&#161;&#229;&#157;&#151;&#229;&#183;&#165;&#228;&#189;&#156;">
<g id="Group 95">
<path id="Vector" d="M48.4768 20.975C48.4763 19.7344 48.1214 18.5197 47.4538 17.4741C46.7861 16.4285 45.8336 15.5954 44.7083 15.073C43.5831 14.5506 42.332 14.3606 41.1024 14.5255C39.8728 14.6904 38.7159 15.2032 37.768 16.0035C36.8201 16.8039 36.1206 17.8584 35.752 19.043C35.3834 20.2276 35.3609 21.4928 35.6873 22.6897C36.0137 23.8866 36.6753 24.9653 37.5943 25.7987C38.5132 26.6322 39.6512 27.1857 40.8741 27.3941L38.3065 31.0048C38.2278 31.1201 38.1859 31.2564 38.1861 31.396C38.1861 31.5715 38.2559 31.7399 38.38 31.8641C38.5042 31.9882 38.6725 32.058 38.8481 32.058H44.9763C45.1161 32.0595 45.2528 32.0174 45.3675 31.9376C45.5082 31.8316 45.6024 31.6753 45.6304 31.5015C45.6585 31.3276 45.6182 31.1496 45.518 31.0048L42.9704 27.4041C44.5048 27.1669 45.9037 26.3882 46.9137 25.2089C47.9237 24.0296 48.4782 22.5277 48.4768 20.975Z" fill="url(#paint1_linear_1_1407)"/>
<path id="Vector_2" d="M37.2133 29.9016C37.1543 30.0087 37.074 30.1025 36.9773 30.1773C36.8805 30.2521 36.7695 30.3062 36.651 30.3363C36.5325 30.3663 36.4091 30.3718 36.2885 30.3522C36.1678 30.3327 36.0524 30.2885 35.9495 30.2225C33.9561 28.9252 32.4353 27.0185 31.6137 24.7866C30.7921 22.5546 30.7138 20.1169 31.3904 17.8368C32.067 15.5567 33.4623 13.5563 35.3683 12.1338C37.2744 10.7112 39.5891 9.94263 41.9674 9.94263C44.3458 9.94263 46.6605 10.7112 48.5665 12.1338C50.4725 13.5563 51.8678 15.5567 52.5444 17.8368C53.221 20.1169 53.1427 22.5546 52.3211 24.7866C51.4995 27.0185 49.9787 28.9252 47.9853 30.2225C47.8821 30.2902 47.7659 30.3357 47.6441 30.3562C47.5224 30.3766 47.3977 30.3716 47.278 30.3415C47.1583 30.3113 47.0462 30.2566 46.9487 30.1809C46.8512 30.1052 46.7704 30.0101 46.7115 29.9016C46.6075 29.7077 46.5797 29.4819 46.6335 29.2685C46.6873 29.0551 46.8189 28.8695 47.0024 28.7481C48.6836 27.6633 49.9686 26.0634 50.6652 24.1877C51.3618 22.312 51.4327 20.2612 50.8672 18.3418C50.3017 16.4225 49.1302 14.7378 47.5278 13.5394C45.9255 12.3411 43.9783 11.6935 41.9774 11.6935C39.9766 11.6935 38.0294 12.3411 36.427 13.5394C34.8247 14.7378 33.6532 16.4225 33.0877 18.3418C32.5222 20.2612 32.593 22.312 33.2897 24.1877C33.9863 26.0634 35.2712 27.6633 36.9525 28.7481C37.136 28.8695 37.2676 29.0551 37.3214 29.2685C37.3752 29.4819 37.3474 29.7077 37.2434 29.9016H37.2133Z" fill="url(#paint2_linear_1_1407)"/>
</g>
</g>
</g>
<defs>
<linearGradient id="paint0_linear_1_1407" x1="41.5" y1="0" x2="41.5" y2="42" gradientUnits="userSpaceOnUse">
<stop stop-color="#E8EFFF"/>
<stop offset="0.66" stop-color="white"/>
</linearGradient>
<linearGradient id="paint1_linear_1_1407" x1="35.458" y1="23.2629" x2="48.4768" y2="23.2629" gradientUnits="userSpaceOnUse">
<stop stop-color="#2254F4"/>
<stop offset="1" stop-color="#9438FC"/>
</linearGradient>
<linearGradient id="paint2_linear_1_1407" x1="30.9346" y1="20.1556" x2="53.0003" y2="20.1556" gradientUnits="userSpaceOnUse">
<stop stop-color="#2254F4"/>
<stop offset="1" stop-color="#9438FC"/>
</linearGradient>
</defs>
</svg>
