<svg width="15" height="15" viewBox="0 0 15 15" fill="none" xmlns="http://www.w3.org/2000/svg">
<g id="&#230;&#137;&#128;&#229;&#177;&#158;&#232;&#161;&#140;&#228;&#184;&#154; 1" clip-path="url(#clip0_1726_1846)">
<path id="Vector" d="M12.142 13H2.858C2.7451 12.9997 2.63336 12.9754 2.52914 12.9284C2.42492 12.8814 2.33027 12.8126 2.2506 12.7259C2.17093 12.6393 2.10779 12.5365 2.06479 12.4234C2.0218 12.3103 1.99978 12.1891 2 12.0668V8.25166H13V12.0668C13.0011 12.1894 12.9797 12.311 12.937 12.4245C12.8943 12.538 12.8312 12.6412 12.7514 12.7281C12.6715 12.8149 12.5765 12.8837 12.4719 12.9304C12.3673 12.9771 12.2551 13.0007 12.142 13ZM2 5.01675C1.99989 4.89478 2.02202 4.77399 2.06513 4.66131C2.10824 4.54864 2.17148 4.44631 2.25121 4.36019C2.33094 4.27407 2.42558 4.20587 2.52972 4.1595C2.63385 4.11313 2.74541 4.08951 2.858 4.09H4.43184V2.73975C4.43184 2.32267 4.73899 2 5.10791 2H9.89205C10.2559 2 10.569 2.34008 10.569 2.73975V4.09H12.142C12.615 4.09 13 4.50616 13 5.02316V6.80149H2V5.01675ZM5.23399 4.09H9.78205V2.8745H5.23399V4.09Z" fill="url(#paint0_linear_1726_1846)"/>
</g>
<defs>
<linearGradient id="paint0_linear_1726_1846" x1="2" y1="7.5" x2="13" y2="7.5" gradientUnits="userSpaceOnUse">
<stop stop-color="#2254F4"/>
<stop offset="1" stop-color="#9438FC"/>
</linearGradient>
<clipPath id="clip0_1726_1846">
<rect width="15" height="15" fill="white"/>
</clipPath>
</defs>
</svg>
