<svg width="83" height="42" viewBox="0 0 83 42" fill="none" xmlns="http://www.w3.org/2000/svg">
<g id="Group 98">
<path id="Rectangle 57" d="M17.666 41.5H65.334C67.1477 41.5 68.7706 40.413 69.4727 38.7656L69.6006 38.4297L80.3193 6.42969C81.2957 3.5146 79.126 0.5 76.0518 0.5H6.94824C3.97018 0.5 1.84136 3.32836 2.59863 6.15527L2.68066 6.42969L13.3994 38.4297C13.9755 40.149 15.521 41.3426 17.3057 41.4854L17.666 41.5Z" fill="url(#paint0_linear_1_1403)" stroke="white"/>
<g id="&#230;&#172;&#190;&#229;&#158;&#139;">
<path id="Vector" d="M50.75 24.625C50.25 24.25 49.625 24 49 24C47.375 24 46 25.375 46 27.125C46 28.875 47.375 30.25 49 30.25C49.625 30.25 50.25 30 50.75 29.625L50 28.625C49.75 28.875 49.375 29 49 29C48 29 47.25 28.125 47.25 27.125C47.25 26.125 48 25.25 49 25.25C49.375 25.25 49.75 25.375 50 25.625L50.75 24.625ZM45 21.875H52C53 21.875 53.875 22.75 53.875 23.75V30.75C53.875 31.75 53 32.625 52 32.625H45C44 32.625 43.125 31.75 43.125 30.75V23.75C43.125 22.75 44 21.875 45 21.875ZM41.875 13.75L42.375 15.125H41.375L41.875 13.75ZM40.375 18L40.875 16.5H42.75L43.375 18H44.875L42.5 11.75H41.25L38.875 18H40.375ZM38.375 9.375H45.375C46.375 9.375 47.25 10.25 47.25 11.25V18.25C47.25 19.25 46.375 20.125 45.375 20.125H38.375C37.375 20.125 36.5 19.25 36.5 18.25V11.25C36.5 10.25 37.375 9.375 38.375 9.375ZM34.625 27.75H35.625C36.125 27.75 36.625 28.125 36.625 28.375C36.625 28.75 36.25 29 35.625 29H34.625V27.75ZM34.625 25.125H35.25C35.75 25.125 36.25 25.5 36.25 25.75C36.25 26 35.75 26.5 35.25 26.5H34.625V25.125ZM34 23.875H33.375V30.375H35.625C36.875 30.375 37.875 29.5 37.875 28.5C37.875 27.875 37.625 27.375 37.125 27C37.375 26.625 37.5 26.25 37.5 25.875C37.5 24.75 36.5 24 35.25 24L34 23.875ZM32 21.875H39C40 21.875 40.875 22.75 40.875 23.75V30.75C40.875 31.75 40 32.625 39 32.625H32C31 32.625 30.125 31.75 30.125 30.75V23.75C30.125 22.75 31 21.875 32 21.875Z" fill="url(#paint1_linear_1_1403)"/>
</g>
</g>
<defs>
<linearGradient id="paint0_linear_1_1403" x1="41.5" y1="42" x2="41.5" y2="0" gradientUnits="userSpaceOnUse">
<stop stop-color="#E8EFFF"/>
<stop offset="0.66" stop-color="white"/>
</linearGradient>
<linearGradient id="paint1_linear_1_1403" x1="30.125" y1="21" x2="53.875" y2="21" gradientUnits="userSpaceOnUse">
<stop stop-color="#2254F4"/>
<stop offset="1" stop-color="#9438FC"/>
</linearGradient>
</defs>
</svg>
