<svg width="20" height="20" viewBox="0 0 20 20" fill="none" xmlns="http://www.w3.org/2000/svg">
<g id="&#231;&#148;&#181;&#232;&#175;&#157; (2) 1" clip-path="url(#clip0_1726_2093)">
<path id="Vector" d="M8.34788 7.0418L6.78892 8.62861C7.60029 10.4297 9.32223 12.4363 11.3188 13.111L12.6669 11.7686C12.6669 11.7686 15.861 12.3265 16.5785 12.6736C17.2021 12.9746 17.4076 13.6441 17.3101 14.4694C17.2074 15.3566 16.0435 17.3118 13.9495 17.3331C11.8555 17.3543 8.77128 15.7764 6.56216 13.451C4.35305 11.1222 2.38309 8.1717 2.7002 5.6675C3.01376 3.16154 5.1963 2.71347 5.74194 2.67274C6.29466 2.63201 6.73223 2.79317 7.06528 3.20581C7.494 3.73888 8.34788 7.0418 8.34788 7.0418Z" fill="#FF8418"/>
</g>
<defs>
<clipPath id="clip0_1726_2093">
<rect width="20" height="20" fill="white"/>
</clipPath>
</defs>
</svg>
