<svg width="15" height="15" viewBox="0 0 15 15" fill="none" xmlns="http://www.w3.org/2000/svg">
<g id="&#231;&#148;&#181;&#232;&#175;&#157; (2) 1" clip-path="url(#clip0_1726_1841)">
<path id="Vector" d="M6.26103 5.28138L5.09181 6.47149C5.70034 7.82232 6.99179 9.32723 8.48919 9.83329L9.5003 8.82648C9.5003 8.82648 11.8959 9.24488 12.434 9.50521C12.9017 9.73102 13.0558 10.2331 12.9827 10.8521C12.9057 11.5175 12.0327 12.9839 10.4622 12.9998C8.89178 13.0158 6.57858 11.8323 4.92174 10.0883C3.26491 8.34167 1.78744 6.1288 2.02527 4.25066C2.26044 2.37118 3.89735 2.03513 4.30658 2.00459C4.72112 1.97404 5.0493 2.09491 5.29908 2.40439C5.62062 2.80419 6.26103 5.28138 6.26103 5.28138Z" fill="url(#paint0_linear_1726_1841)"/>
</g>
<defs>
<linearGradient id="paint0_linear_1726_1841" x1="2" y1="7.5" x2="13" y2="7.5" gradientUnits="userSpaceOnUse">
<stop stop-color="#2254F4"/>
<stop offset="1" stop-color="#9438FC"/>
</linearGradient>
<clipPath id="clip0_1726_1841">
<rect width="15" height="15" fill="white"/>
</clipPath>
</defs>
</svg>
