<svg width="83" height="42" viewBox="0 0 83 42" fill="none" xmlns="http://www.w3.org/2000/svg">
<g id="Group 96">
<path id="Rectangle 59" d="M17.666 41.5H65.334C67.1477 41.5 68.7706 40.413 69.4727 38.7656L69.6006 38.4297L80.3193 6.42969C81.2957 3.5146 79.126 0.5 76.0518 0.5H6.94824C3.97018 0.5 1.84136 3.32836 2.59863 6.15527L2.68066 6.42969L13.3994 38.4297C13.9755 40.149 15.521 41.3426 17.3057 41.4854L17.666 41.5Z" fill="url(#paint0_linear_1_1417)" stroke="white"/>
<g id="AI">
<path id="Vector" d="M48.25 13.5C48.5783 13.5 48.9034 13.5647 49.2067 13.6903C49.51 13.8159 49.7856 14.0001 50.0178 14.2322C50.2499 14.4644 50.4341 14.74 50.5597 15.0433C50.6853 15.3466 50.75 15.6717 50.75 16V26C50.75 26.3283 50.6853 26.6534 50.5597 26.9567C50.4341 27.26 50.2499 27.5356 50.0178 27.7678C49.7856 27.9999 49.51 28.1841 49.2067 28.3097C48.9034 28.4353 48.5783 28.5 48.25 28.5H35.75C35.4217 28.5 35.0966 28.4353 34.7933 28.3097C34.49 28.1841 34.2144 27.9999 33.9822 27.7678C33.7501 27.5356 33.5659 27.26 33.4403 26.9567C33.3147 26.6534 33.25 26.3283 33.25 26V16C33.25 15.6717 33.3147 15.3466 33.4403 15.0433C33.5659 14.74 33.7501 14.4644 33.9822 14.2322C34.2144 14.0001 34.49 13.8159 34.7933 13.6903C35.0966 13.5647 35.4217 13.5 35.75 13.5H48.25ZM47 16H45.75V26H47V16ZM40.75 16H39.5L35.75 26H37L38.4062 22.25H41.8437L43.25 26H44.5L40.75 16ZM40.125 17.6663L41.375 21H38.875L40.125 17.6663Z" fill="url(#paint1_linear_1_1417)"/>
<path id="Vector_2" d="M54.5 17.25H52V16C52 15.0054 51.6049 14.0516 50.9016 13.3483C50.1984 12.6451 49.2446 12.25 48.25 12.25H42V9.75H48.25C49.0708 9.75 49.8835 9.91166 50.6418 10.2258C51.4001 10.5398 52.0891 11.0002 52.6694 11.5806C53.2498 12.1609 53.7102 12.8499 54.0242 13.6082C54.3383 14.3665 54.5 15.1792 54.5 16V17.25ZM37 9.75H39.5V12.25H37V9.75ZM29.5 24.75H32V26C32 26.9946 32.3951 27.9484 33.0983 28.6516C33.8016 29.3549 34.7554 29.75 35.75 29.75H42V32.25H35.75C34.9292 32.25 34.1165 32.0883 33.3582 31.7742C32.5999 31.4602 31.9109 30.9998 31.3306 30.4194C30.7502 29.8391 30.2898 29.1501 29.9758 28.3918C29.6617 27.6335 29.5 26.8208 29.5 26V24.75ZM44.5 29.75H47V32.25H44.5V29.75Z" fill="url(#paint2_linear_1_1417)"/>
</g>
</g>
<defs>
<linearGradient id="paint0_linear_1_1417" x1="41.5" y1="42" x2="41.5" y2="0" gradientUnits="userSpaceOnUse">
<stop stop-color="#E8EFFF"/>
<stop offset="0.66" stop-color="white"/>
</linearGradient>
<linearGradient id="paint1_linear_1_1417" x1="33.25" y1="21" x2="50.75" y2="21" gradientUnits="userSpaceOnUse">
<stop stop-color="#2254F4"/>
<stop offset="1" stop-color="#9438FC"/>
</linearGradient>
<linearGradient id="paint2_linear_1_1417" x1="29.5" y1="21" x2="54.5" y2="21" gradientUnits="userSpaceOnUse">
<stop stop-color="#2254F4"/>
<stop offset="1" stop-color="#9438FC"/>
</linearGradient>
</defs>
</svg>
