<svg width="83" height="42" viewBox="0 0 83 42" fill="none" xmlns="http://www.w3.org/2000/svg">
<g id="Group 97">
<path id="Rectangle 58" d="M17.666 0.5H65.334C67.1477 0.500024 68.7706 1.58698 69.4727 3.23438L69.6006 3.57031L80.3193 35.5703C81.2957 38.4854 79.126 41.5 76.0518 41.5H6.94824C3.97018 41.5 1.84136 38.6716 2.59863 35.8447L2.68066 35.5703L13.3994 3.57031C13.9755 1.85102 15.521 0.657358 17.3057 0.514648L17.666 0.5Z" fill="url(#paint0_linear_1_1413)" stroke="white"/>
<g id="&#233;&#149;&#156;&#229;&#131;&#143;&#229;&#177;&#143;&#229;&#185;&#149;">
<path id="Vector" d="M48.25 9.75H35.75C32.3 9.75 29.5 12.55 29.5 16V26C29.5 29.45 32.3 32.25 35.75 32.25H48.25C51.7 32.25 54.5 29.45 54.5 26V16C54.5 12.55 51.7 9.75 48.25 9.75ZM40.1125 27.0125C40.075 27.0125 40.0375 27.025 39.9875 27.025C39.525 27.025 39.125 26.675 39.0625 26.2125C38.9 24.9375 37.975 24.0125 36.7 23.85C36.4533 23.8179 36.2293 23.6894 36.0771 23.4927C35.9248 23.2959 35.8567 23.0469 35.8875 22.8C35.95 22.2875 36.425 21.925 36.9375 21.9875C39.05 22.2625 40.65 23.8625 40.925 25.975C40.9875 26.475 40.625 26.95 40.1125 27.0125ZM43.925 26.375C43.8875 26.375 43.85 26.3875 43.8 26.3875C43.3375 26.3875 42.9375 26.0375 42.875 25.575C42.4875 22.6 40.325 20.425 37.3375 20.0375C37.0908 20.0054 36.8668 19.8769 36.7146 19.6802C36.5623 19.4834 36.4942 19.2344 36.525 18.9875C36.5875 18.475 37.0625 18.1125 37.575 18.175C41.425 18.675 44.2375 21.475 44.7375 25.3375C44.8 25.8375 44.4375 26.3 43.925 26.375ZM47.3 25.2875C47.2625 25.2875 47.225 25.3 47.175 25.3C46.7125 25.3 46.3125 24.95 46.25 24.4875C45.7125 20.2625 42.6375 17.1875 38.4125 16.65C38.1658 16.6179 37.9418 16.4894 37.7896 16.2927C37.6373 16.0959 37.5692 15.8469 37.6 15.6C37.6625 15.0875 38.1375 14.725 38.65 14.7875C43.7375 15.4375 47.45 19.15 48.1125 24.25C48.175 24.7625 47.8125 25.225 47.3 25.2875Z" fill="url(#paint1_linear_1_1413)"/>
</g>
</g>
<defs>
<linearGradient id="paint0_linear_1_1413" x1="41.5" y1="0" x2="41.5" y2="42" gradientUnits="userSpaceOnUse">
<stop stop-color="#E8EFFF"/>
<stop offset="0.66" stop-color="white"/>
</linearGradient>
<linearGradient id="paint1_linear_1_1413" x1="29.5" y1="21" x2="54.5" y2="21" gradientUnits="userSpaceOnUse">
<stop stop-color="#2254F4"/>
<stop offset="1" stop-color="#9438FC"/>
</linearGradient>
</defs>
</svg>
