<svg width="20" height="20" viewBox="0 0 20 20" fill="none" xmlns="http://www.w3.org/2000/svg">
<g id="&#230;&#159;&#165;&#232;&#175;&#162; 1" clip-path="url(#clip0_1_861)">
<path id="Vector" d="M14.9068 13.7275L19.1668 17.9884L17.9885 19.1667L13.7277 14.9067C12.3201 16.048 10.5623 16.6696 8.75017 16.6667C7.1844 16.6667 5.65379 16.2024 4.3519 15.3325C3.05001 14.4626 2.03531 13.2262 1.43612 11.7796C0.836926 10.333 0.68015 8.74126 0.985616 7.20558C1.29108 5.6699 2.04507 4.25928 3.15224 3.15212C4.2594 2.04495 5.67002 1.29096 7.2057 0.985494C8.74138 0.680028 10.3332 0.836804 11.7797 1.436C13.2263 2.03519 14.4627 3.04989 15.3326 4.35178C16.2025 5.65367 16.6668 7.18428 16.6668 8.75004C16.6697 10.5622 16.0482 12.32 14.9068 13.7275ZM8.75017 15C10.4078 15 11.9975 14.3416 13.1696 13.1695C14.3417 11.9974 15.0002 10.4076 15.0002 8.75004C15.0002 7.09244 14.3417 5.50273 13.1696 4.33063C11.9975 3.15852 10.4078 2.50004 8.75017 2.50004C7.09256 2.50004 5.50285 3.15852 4.33075 4.33063C3.15865 5.50273 2.50017 7.09244 2.50017 8.75004C2.50017 10.4076 3.15865 11.9974 4.33075 13.1695C5.50285 14.3416 7.09256 15 8.75017 15Z" fill="url(#paint0_linear_1_861)"/>
</g>
<defs>
<linearGradient id="paint0_linear_1_861" x1="0.833496" y1="10" x2="19.1668" y2="10" gradientUnits="userSpaceOnUse">
<stop stop-color="#2254F4"/>
<stop offset="1" stop-color="#9438FC"/>
</linearGradient>
<clipPath id="clip0_1_861">
<rect width="20" height="20" fill="white"/>
</clipPath>
</defs>
</svg>
